<mxfile host="app.diagrams.net" agent="Mozilla/5.0 (Windows NT 10.0; Win64; x64) AppleWebKit/537.36 (KHTML, like Gecko) Chrome/131.0.0.0 Safari/537.36" version="25.0.3">
  <diagram id="6a731a19-8d31-9384-78a2-239565b7b9f0" name="Page-1">
    <mxGraphModel dx="1728" dy="943" grid="1" gridSize="10" guides="1" tooltips="1" connect="1" arrows="1" fold="1" page="1" pageScale="1" pageWidth="1169" pageHeight="827" background="none" math="0" shadow="0">
      <root>
        <mxCell id="0" />
        <mxCell id="1" parent="0" />
        <mxCell id="FllbzKFlJK6ehd7ZULbo-95" value="" style="edgeStyle=orthogonalEdgeStyle;rounded=0;orthogonalLoop=1;jettySize=auto;html=1;" parent="1" source="2" target="FllbzKFlJK6ehd7ZULbo-77" edge="1">
          <mxGeometry relative="1" as="geometry" />
        </mxCell>
        <mxCell id="2" value="start" style="shape=mxgraph.flowchart.terminator;strokeWidth=2;gradientColor=none;gradientDirection=north;fontStyle=0;html=1;" parent="1" vertex="1">
          <mxGeometry x="269.5" y="61.5" width="120" height="30" as="geometry" />
        </mxCell>
        <mxCell id="JkhU1cK_ru-Ez6kLOYar-4" style="edgeStyle=orthogonalEdgeStyle;rounded=0;orthogonalLoop=1;jettySize=auto;html=1;exitX=0.5;exitY=1;exitDx=0;exitDy=0;exitPerimeter=0;entryX=0.5;entryY=0;entryDx=0;entryDy=0;" edge="1" parent="1" source="FllbzKFlJK6ehd7ZULbo-64" target="FllbzKFlJK6ehd7ZULbo-112">
          <mxGeometry relative="1" as="geometry" />
        </mxCell>
        <mxCell id="FllbzKFlJK6ehd7ZULbo-64" value="Select&lt;div&gt;Destination&lt;/div&gt;" style="shape=mxgraph.flowchart.decision;strokeWidth=2;gradientColor=none;gradientDirection=north;fontStyle=0;html=1;" parent="1" vertex="1">
          <mxGeometry x="742" y="236" width="98" height="57" as="geometry" />
        </mxCell>
        <mxCell id="FllbzKFlJK6ehd7ZULbo-96" value="" style="edgeStyle=orthogonalEdgeStyle;rounded=0;orthogonalLoop=1;jettySize=auto;html=1;" parent="1" source="FllbzKFlJK6ehd7ZULbo-77" edge="1">
          <mxGeometry relative="1" as="geometry">
            <mxPoint x="329.5" y="236" as="targetPoint" />
          </mxGeometry>
        </mxCell>
        <mxCell id="FllbzKFlJK6ehd7ZULbo-77" value="&lt;span style=&quot;text-wrap-mode: nowrap;&quot;&gt;Open Receiving&amp;nbsp;&lt;/span&gt;&lt;div style=&quot;text-wrap-mode: nowrap;&quot;&gt;Screen (2201)&lt;/div&gt;" style="rounded=1;whiteSpace=wrap;html=1;" parent="1" vertex="1">
          <mxGeometry x="269.5" y="131.5" width="120" height="60" as="geometry" />
        </mxCell>
        <mxCell id="FllbzKFlJK6ehd7ZULbo-107" style="edgeStyle=orthogonalEdgeStyle;rounded=0;orthogonalLoop=1;jettySize=auto;html=1;exitX=0.5;exitY=1;exitDx=0;exitDy=0;entryX=0;entryY=0.5;entryDx=0;entryDy=0;" parent="1" source="FllbzKFlJK6ehd7ZULbo-78" edge="1" target="FllbzKFlJK6ehd7ZULbo-89">
          <mxGeometry relative="1" as="geometry">
            <mxPoint x="450" y="270" as="targetPoint" />
            <Array as="points">
              <mxPoint x="330" y="540" />
              <mxPoint x="439" y="540" />
              <mxPoint x="439" y="160" />
            </Array>
          </mxGeometry>
        </mxCell>
        <mxCell id="FllbzKFlJK6ehd7ZULbo-78" value="&lt;span style=&quot;text-wrap-mode: nowrap;&quot;&gt;Receipt&lt;/span&gt;&lt;div style=&quot;text-wrap-mode: nowrap;&quot;&gt;Consignment&lt;/div&gt;" style="rounded=1;whiteSpace=wrap;html=1;dashed=1;dashPattern=8 8;" parent="1" vertex="1">
          <mxGeometry x="269.5" y="436" width="120" height="60" as="geometry" />
        </mxCell>
        <mxCell id="FllbzKFlJK6ehd7ZULbo-100" value="" style="edgeStyle=orthogonalEdgeStyle;rounded=0;orthogonalLoop=1;jettySize=auto;html=1;" parent="1" source="FllbzKFlJK6ehd7ZULbo-79" target="FllbzKFlJK6ehd7ZULbo-78" edge="1">
          <mxGeometry relative="1" as="geometry" />
        </mxCell>
        <mxCell id="FllbzKFlJK6ehd7ZULbo-79" value="&lt;span style=&quot;text-wrap-mode: nowrap;&quot;&gt;Review and&amp;nbsp;&lt;/span&gt;&lt;div style=&quot;text-wrap-mode: nowrap;&quot;&gt;Create Receipt&lt;/div&gt;" style="rounded=1;whiteSpace=wrap;html=1;" parent="1" vertex="1">
          <mxGeometry x="269.5" y="340" width="120" height="60" as="geometry" />
        </mxCell>
        <mxCell id="FllbzKFlJK6ehd7ZULbo-99" value="" style="edgeStyle=orthogonalEdgeStyle;rounded=0;orthogonalLoop=1;jettySize=auto;html=1;" parent="1" source="FllbzKFlJK6ehd7ZULbo-80" target="FllbzKFlJK6ehd7ZULbo-79" edge="1">
          <mxGeometry relative="1" as="geometry" />
        </mxCell>
        <mxCell id="FllbzKFlJK6ehd7ZULbo-80" value="&lt;span style=&quot;text-wrap-mode: nowrap;&quot;&gt;Locate&amp;nbsp;&lt;/span&gt;&lt;div style=&quot;text-wrap-mode: nowrap;&quot;&gt;Purchase Order&lt;/div&gt;" style="rounded=1;whiteSpace=wrap;html=1;fillColor=#d5e8d4;strokeColor=#82b366;" parent="1" vertex="1">
          <mxGeometry x="70" y="340" width="120" height="60" as="geometry" />
        </mxCell>
        <mxCell id="JkhU1cK_ru-Ez6kLOYar-2" value="" style="edgeStyle=orthogonalEdgeStyle;rounded=0;orthogonalLoop=1;jettySize=auto;html=1;" edge="1" parent="1" source="FllbzKFlJK6ehd7ZULbo-81" target="FllbzKFlJK6ehd7ZULbo-79">
          <mxGeometry relative="1" as="geometry" />
        </mxCell>
        <mxCell id="FllbzKFlJK6ehd7ZULbo-81" value="&lt;span style=&quot;text-wrap-mode: nowrap;&quot;&gt;Select/Create Receipt&lt;/span&gt;" style="rounded=1;whiteSpace=wrap;html=1;" parent="1" vertex="1">
          <mxGeometry x="269.5" y="236" width="120" height="60" as="geometry" />
        </mxCell>
        <mxCell id="FllbzKFlJK6ehd7ZULbo-123" style="edgeStyle=orthogonalEdgeStyle;rounded=0;orthogonalLoop=1;jettySize=auto;html=1;exitX=0.5;exitY=1;exitDx=0;exitDy=0;entryX=0.5;entryY=0;entryDx=0;entryDy=0;" parent="1" source="FllbzKFlJK6ehd7ZULbo-83" edge="1">
          <mxGeometry relative="1" as="geometry">
            <mxPoint x="791" y="700" as="targetPoint" />
          </mxGeometry>
        </mxCell>
        <mxCell id="FllbzKFlJK6ehd7ZULbo-83" value="&lt;span style=&quot;text-wrap-mode: nowrap;&quot;&gt;Finalise Receipt&lt;/span&gt;" style="rounded=1;whiteSpace=wrap;html=1;" parent="1" vertex="1">
          <mxGeometry x="731" y="610" width="120" height="60" as="geometry" />
        </mxCell>
        <mxCell id="FllbzKFlJK6ehd7ZULbo-84" value="&lt;span style=&quot;text-wrap-mode: nowrap;&quot;&gt;Bulky Storage&lt;/span&gt;" style="rounded=1;whiteSpace=wrap;html=1;" parent="1" vertex="1">
          <mxGeometry x="630" y="410" width="120" height="60" as="geometry" />
        </mxCell>
        <mxCell id="FllbzKFlJK6ehd7ZULbo-86" value="&lt;span style=&quot;text-wrap-mode: nowrap;&quot;&gt;Pick Face&lt;/span&gt;" style="rounded=1;whiteSpace=wrap;html=1;" parent="1" vertex="1">
          <mxGeometry x="830" y="330" width="120" height="60" as="geometry" />
        </mxCell>
        <mxCell id="FllbzKFlJK6ehd7ZULbo-87" value="&lt;span style=&quot;text-wrap-mode: nowrap;&quot;&gt;Sorting Station&lt;/span&gt;" style="rounded=1;whiteSpace=wrap;html=1;" parent="1" vertex="1">
          <mxGeometry x="630" y="330" width="120" height="60" as="geometry" />
        </mxCell>
        <mxCell id="FllbzKFlJK6ehd7ZULbo-102" value="" style="edgeStyle=orthogonalEdgeStyle;rounded=0;orthogonalLoop=1;jettySize=auto;html=1;" parent="1" source="FllbzKFlJK6ehd7ZULbo-88" target="FllbzKFlJK6ehd7ZULbo-64" edge="1">
          <mxGeometry relative="1" as="geometry" />
        </mxCell>
        <mxCell id="FllbzKFlJK6ehd7ZULbo-88" value="&lt;span style=&quot;text-wrap-mode: nowrap;&quot;&gt;Review Product&amp;nbsp;&lt;/span&gt;&lt;div style=&quot;text-wrap-mode: nowrap;&quot;&gt;Details&lt;/div&gt;" style="rounded=1;whiteSpace=wrap;html=1;" parent="1" vertex="1">
          <mxGeometry x="731" y="130" width="120" height="60" as="geometry" />
        </mxCell>
        <mxCell id="FllbzKFlJK6ehd7ZULbo-101" value="" style="edgeStyle=orthogonalEdgeStyle;rounded=0;orthogonalLoop=1;jettySize=auto;html=1;exitX=1;exitY=0.5;exitDx=0;exitDy=0;" parent="1" source="FllbzKFlJK6ehd7ZULbo-89" target="FllbzKFlJK6ehd7ZULbo-88" edge="1">
          <mxGeometry relative="1" as="geometry">
            <mxPoint x="650.5" y="160" as="sourcePoint" />
          </mxGeometry>
        </mxCell>
        <mxCell id="FllbzKFlJK6ehd7ZULbo-89" value="&lt;span style=&quot;text-wrap-mode: nowrap;&quot;&gt;Select Product&lt;/span&gt;" style="rounded=1;whiteSpace=wrap;html=1;" parent="1" vertex="1">
          <mxGeometry x="488.5" y="130" width="120" height="60" as="geometry" />
        </mxCell>
        <mxCell id="FllbzKFlJK6ehd7ZULbo-92" style="edgeStyle=orthogonalEdgeStyle;rounded=0;orthogonalLoop=1;jettySize=auto;html=1;exitX=0.5;exitY=1;exitDx=0;exitDy=0;" parent="1" source="FllbzKFlJK6ehd7ZULbo-83" target="FllbzKFlJK6ehd7ZULbo-83" edge="1">
          <mxGeometry relative="1" as="geometry" />
        </mxCell>
        <mxCell id="FllbzKFlJK6ehd7ZULbo-104" value="" style="edgeStyle=orthogonalEdgeStyle;rounded=0;orthogonalLoop=1;jettySize=auto;html=1;" parent="1" source="FllbzKFlJK6ehd7ZULbo-94" target="FllbzKFlJK6ehd7ZULbo-83" edge="1">
          <mxGeometry relative="1" as="geometry" />
        </mxCell>
        <mxCell id="FllbzKFlJK6ehd7ZULbo-115" value="No" style="edgeLabel;html=1;align=center;verticalAlign=middle;resizable=0;points=[];" parent="FllbzKFlJK6ehd7ZULbo-104" vertex="1" connectable="0">
          <mxGeometry x="-0.4894" y="-4" relative="1" as="geometry">
            <mxPoint as="offset" />
          </mxGeometry>
        </mxCell>
        <mxCell id="FllbzKFlJK6ehd7ZULbo-105" style="edgeStyle=orthogonalEdgeStyle;rounded=0;orthogonalLoop=1;jettySize=auto;html=1;exitX=0;exitY=0.5;exitDx=0;exitDy=0;exitPerimeter=0;entryX=0.5;entryY=1;entryDx=0;entryDy=0;" parent="1" source="FllbzKFlJK6ehd7ZULbo-94" target="FllbzKFlJK6ehd7ZULbo-89" edge="1">
          <mxGeometry relative="1" as="geometry">
            <mxPoint x="590.5" y="190" as="targetPoint" />
          </mxGeometry>
        </mxCell>
        <mxCell id="FllbzKFlJK6ehd7ZULbo-117" value="Yes" style="edgeLabel;html=1;align=center;verticalAlign=middle;resizable=0;points=[];" parent="FllbzKFlJK6ehd7ZULbo-105" vertex="1" connectable="0">
          <mxGeometry x="-0.6863" y="1" relative="1" as="geometry">
            <mxPoint as="offset" />
          </mxGeometry>
        </mxCell>
        <mxCell id="FllbzKFlJK6ehd7ZULbo-94" value="More&amp;nbsp;&lt;div&gt;Products?&lt;/div&gt;" style="shape=mxgraph.flowchart.decision;strokeWidth=2;gradientColor=none;gradientDirection=north;fontStyle=0;html=1;" parent="1" vertex="1">
          <mxGeometry x="742" y="520" width="98" height="57" as="geometry" />
        </mxCell>
        <mxCell id="FllbzKFlJK6ehd7ZULbo-112" value="" style="rounded=0;whiteSpace=wrap;html=1;fillColor=none;dashed=1;" parent="1" vertex="1">
          <mxGeometry x="606" y="316" width="370" height="180" as="geometry" />
        </mxCell>
        <mxCell id="ooKo_V_hb8zaq4R_d-ZS-2" value="&lt;span style=&quot;text-wrap-mode: nowrap;&quot;&gt;Manufacturing&lt;/span&gt;" style="rounded=1;whiteSpace=wrap;html=1;" parent="1" vertex="1">
          <mxGeometry x="830" y="410" width="120" height="60" as="geometry" />
        </mxCell>
        <mxCell id="ooKo_V_hb8zaq4R_d-ZS-5" value="" style="edgeStyle=orthogonalEdgeStyle;rounded=0;orthogonalLoop=1;jettySize=auto;html=1;" parent="1" source="ooKo_V_hb8zaq4R_d-ZS-3" target="ooKo_V_hb8zaq4R_d-ZS-4" edge="1">
          <mxGeometry relative="1" as="geometry" />
        </mxCell>
        <mxCell id="ooKo_V_hb8zaq4R_d-ZS-8" value="No" style="edgeLabel;html=1;align=center;verticalAlign=middle;resizable=0;points=[];" parent="ooKo_V_hb8zaq4R_d-ZS-5" vertex="1" connectable="0">
          <mxGeometry x="0.0735" y="1" relative="1" as="geometry">
            <mxPoint as="offset" />
          </mxGeometry>
        </mxCell>
        <mxCell id="ooKo_V_hb8zaq4R_d-ZS-7" value="Yes" style="edgeStyle=orthogonalEdgeStyle;rounded=0;orthogonalLoop=1;jettySize=auto;html=1;" parent="1" source="ooKo_V_hb8zaq4R_d-ZS-3" target="ooKo_V_hb8zaq4R_d-ZS-6" edge="1">
          <mxGeometry relative="1" as="geometry" />
        </mxCell>
        <mxCell id="ooKo_V_hb8zaq4R_d-ZS-3" value="Local&amp;nbsp;&lt;div&gt;Supplier?&lt;/div&gt;" style="shape=mxgraph.flowchart.decision;strokeWidth=2;gradientColor=none;gradientDirection=north;fontStyle=0;html=1;" parent="1" vertex="1">
          <mxGeometry x="742" y="700" width="98" height="57" as="geometry" />
        </mxCell>
        <mxCell id="ooKo_V_hb8zaq4R_d-ZS-4" value="&lt;span style=&quot;text-wrap-mode: nowrap;&quot;&gt;Update Stock Value&lt;/span&gt;&lt;div&gt;&lt;span style=&quot;text-wrap-mode: nowrap;&quot;&gt;in Navigator,&lt;/span&gt;&lt;/div&gt;&lt;div&gt;&lt;span style=&quot;text-wrap-mode: nowrap;&quot;&gt;Send email for Nexus&lt;/span&gt;&lt;/div&gt;" style="rounded=1;whiteSpace=wrap;html=1;dashed=1;dashPattern=8 8;fillColor=#d5e8d4;strokeColor=#82b366;" parent="1" vertex="1">
          <mxGeometry x="552" y="698.5" width="120" height="60" as="geometry" />
        </mxCell>
        <mxCell id="ooKo_V_hb8zaq4R_d-ZS-6" value="&lt;span style=&quot;text-wrap-mode: nowrap;&quot;&gt;Update Stock Value&lt;/span&gt;&lt;div&gt;&lt;span style=&quot;text-wrap-mode: nowrap;&quot;&gt;in Navigator,&lt;/span&gt;&lt;/div&gt;&lt;div&gt;&lt;span style=&quot;text-wrap-mode: nowrap;&quot;&gt;Receive PO in Nexus&lt;/span&gt;&lt;/div&gt;" style="rounded=1;whiteSpace=wrap;html=1;dashed=1;dashPattern=8 8;fillColor=#d5e8d4;strokeColor=#82b366;" parent="1" vertex="1">
          <mxGeometry x="912" y="698.5" width="120" height="60" as="geometry" />
        </mxCell>
        <mxCell id="JkhU1cK_ru-Ez6kLOYar-5" style="edgeStyle=orthogonalEdgeStyle;rounded=0;orthogonalLoop=1;jettySize=auto;html=1;exitX=0.5;exitY=1;exitDx=0;exitDy=0;entryX=0.5;entryY=0;entryDx=0;entryDy=0;entryPerimeter=0;" edge="1" parent="1" source="FllbzKFlJK6ehd7ZULbo-112" target="FllbzKFlJK6ehd7ZULbo-94">
          <mxGeometry relative="1" as="geometry" />
        </mxCell>
      </root>
    </mxGraphModel>
  </diagram>
</mxfile>
